<svg width="33" height="32" viewBox="0 0 33 32" fill="none" xmlns="http://www.w3.org/2000/svg">
<g id="svg1404243909_1655">
<path id="Vector" d="M11.42 12.9999H7.42004V24.9999H11.42V12.9999Z" fill="#7A7A7A"/>
<path id="Vector_2" d="M25.1174 13.9598C24.6862 13.4979 24.1591 13.1343 23.5725 12.8941C22.9858 12.6538 22.3537 12.5427 21.7196 12.5683C21.2409 12.5628 20.7641 12.6269 20.3042 12.7587C19.9152 12.8677 19.5505 13.0486 19.2292 13.2919C18.7565 13.6417 18.3559 14.0784 18.0492 14.5782V12.8512H13.9855L13.9982 13.4402C14.0067 13.8329 14.011 15.0424 14.011 17.0687C14.011 19.0951 14.0028 21.7388 13.9866 24.9999H18.0524V18.2151C18.0404 17.8789 18.0863 17.5431 18.1881 17.2223C18.3551 16.8111 18.6251 16.4491 18.9726 16.1705C19.3438 15.8823 19.8056 15.7333 20.2766 15.7498C20.5783 15.7276 20.8807 15.7831 21.1544 15.9108C21.4282 16.0384 21.6641 16.2341 21.8393 16.4787C22.2052 17.0862 22.3795 17.7883 22.3398 18.4949V24.9915H26.4056V18.0289C26.5091 16.5599 26.0489 15.1064 25.1174 13.9598Z" fill="#7A7A7A"/>
<path id="Vector_3" d="M9.43088 7.0025C8.89621 6.97719 8.37385 7.18071 7.97701 7.56896C7.79552 7.75094 7.65202 7.97269 7.55609 8.2194C7.46015 8.46611 7.41399 8.73211 7.42068 8.99965C7.41455 9.2648 7.45944 9.52845 7.55249 9.77386C7.64555 10.0193 7.78474 10.2411 7.96124 10.4253C8.15125 10.6193 8.37543 10.77 8.62043 10.8684C8.86543 10.9667 9.12624 11.0107 9.3873 10.9978H9.40863C9.94745 11.0238 10.4738 10.8179 10.8727 10.4253C11.0532 10.2442 11.1955 10.0231 11.2898 9.777C11.384 9.53095 11.428 9.26578 11.4188 8.99965C11.4225 8.73296 11.3755 8.46829 11.2808 8.22203C11.186 7.97577 11.0455 7.75315 10.868 7.56796C10.6752 7.37517 10.4488 7.22587 10.2021 7.12878C9.95536 7.03169 9.69317 6.98876 9.43088 7.0025Z" fill="#7A7A7A"/>
</g>
</svg>
