<svg width="33" height="32" viewBox="0 0 33 32" fill="none" xmlns="http://www.w3.org/2000/svg">
<g id="svg2016312803_2078">
<path id="Vector" fill-rule="evenodd" clip-rule="evenodd" d="M16.42 25C14.6401 25 12.9002 24.4723 11.4202 23.4835C9.94025 22.4947 8.78669 21.0892 8.10541 19.4449C7.42414 17.8005 7.24573 15.991 7.59276 14.2453C7.93979 12.4995 8.79666 10.8959 10.055 9.6371C11.3134 8.37831 12.9167 7.5209 14.6624 7.1733C16.408 6.8257 18.2175 7.0035 19.8621 7.68424C21.5067 8.36497 22.9125 9.51806 23.9018 10.9977C24.8911 12.4774 25.4194 14.2171 25.42 15.997C25.4179 18.3836 24.4691 20.6719 22.7818 22.3597C21.0946 24.0476 18.8066 24.9971 16.42 25ZM23.6133 17.1662C22.1405 16.7387 20.593 16.6325 19.0756 16.8548C19.6948 18.5415 20.1683 20.2783 20.4906 22.046C21.3166 21.4892 22.0197 20.7691 22.5568 19.9302C23.0938 19.0913 23.4534 18.1513 23.6133 17.1682V17.1662ZM19.266 22.7193C18.9233 20.8329 18.4027 18.9831 17.7111 17.1949L17.6635 17.2108C15.2524 17.9512 13.2107 19.5765 11.9488 21.7604C12.9723 22.5582 14.1906 23.0678 15.4773 23.2364C16.764 23.405 18.0714 23.2265 19.266 22.7193ZM11.0077 20.8828C12.3805 18.6565 14.4679 16.9617 16.9287 16.0754C17.0279 16.0446 17.1191 16.0159 17.2153 15.9891C17.0328 15.5746 16.8335 15.1611 16.6203 14.7525C14.1874 15.4489 11.6682 15.7978 9.13754 15.7888C9.13754 15.8632 9.13754 15.9375 9.13754 16.0109C9.13507 17.8106 9.80164 19.547 11.0077 20.8828ZM9.28827 14.5195C11.5615 14.506 13.8242 14.2078 16.0234 13.632C15.1999 12.18 14.2981 10.7738 13.3222 9.41958C12.3018 9.90071 11.4067 10.6115 10.7068 11.4963C10.0071 12.381 9.52151 13.4158 9.28827 14.5195ZM14.7124 8.92971C15.7102 10.2904 16.6182 11.7148 17.4305 13.1937C18.9289 12.7007 20.2541 11.7876 21.2482 10.5629C20.371 9.78427 19.3186 9.22913 18.1806 8.94477C17.0427 8.6604 15.8528 8.65524 14.7124 8.92971ZM22.0584 11.4088C20.9768 12.7051 19.5753 13.6964 17.9927 14.2845C18.1623 14.6326 18.3249 14.9856 18.4767 15.3406C18.5295 15.4669 18.5818 15.5921 18.6333 15.7164C20.3269 15.5402 22.0374 15.6194 23.7075 15.9514C23.6945 14.292 23.1128 12.6871 22.0594 11.4048L22.0584 11.4088Z" fill="#7A7A7A"/>
</g>
</svg>
